<?xml version="1.0" encoding="utf-8" standalone="no"?>
<!DOCTYPE svg PUBLIC "-//W3C//DTD SVG 1.1//EN"
  "http://www.w3.org/Graphics/SVG/1.1/DTD/svg11.dtd">
<!-- Created with matplotlib (http://matplotlib.org/) -->
<svg height="540pt" version="1.1" viewBox="0 0 720 540" width="720pt" xmlns="http://www.w3.org/2000/svg" xmlns:xlink="http://www.w3.org/1999/xlink">
 <defs>
  <style type="text/css">
*{stroke-linecap:butt;stroke-linejoin:round;}
  </style>
 </defs>
 <g id="figure_1">
  <g id="patch_1">
   <path d="
M0 540
L720 540
L720 0
L0 0
z
" style="fill:#ffffff;"/>
  </g>
  <g id="axes_1">
   <g id="patch_2">
    <path d="
M90 472.5
L648 472.5
L648 54
L90 54
z
" style="fill:#ffffff;"/>
   </g>
   <g id="line2d_1">
    <path clip-path="url(#p92fa548731)" d="
M90 459.214
L90 406.071
L110.667 406.071
L110.667 326.357
L131.333 299.786
L131.333 259.929
L131.333 233.357
L172.667 206.786
L193.333 193.5
L234.667 180.214
L255.333 140.357
L296.667 140.357
L317.333 127.071
L338 113.786
L358.667 100.5
L358.667 87.2143
L379.333 73.9286
L400 73.9286
L462 73.9286
L482.667 73.9286
L544.667 73.9286
L586 73.9286
L648 73.9286" style="fill:none;stroke:#0000ff;stroke-linecap:square;stroke-width:3;"/>
   </g>
   <g id="line2d_2">
    <path clip-path="url(#p92fa548731)" d="
M90 472.5
L648 73.9286" style="fill:none;stroke:#000000;stroke-dasharray:6.000000,6.000000;stroke-dashoffset:0.0;stroke-width:3;"/>
   </g>
   <g id="matplotlib.axis_1">
    <g id="xtick_1">
     <g id="line2d_3">
      <defs>
       <path d="
M0 0
L0 -4" id="m93b0483c22" style="stroke:#000000;stroke-width:0.5;"/>
      </defs>
      <g>
       <use style="stroke:#000000;stroke-width:0.5;" x="90.0" xlink:href="#m93b0483c22" y="472.5"/>
      </g>
     </g>
     <g id="line2d_4">
      <defs>
       <path d="
M0 0
L0 4" id="m741efc42ff" style="stroke:#000000;stroke-width:0.5;"/>
      </defs>
      <g>
       <use style="stroke:#000000;stroke-width:0.5;" x="90.0" xlink:href="#m741efc42ff" y="54.0"/>
      </g>
     </g>
     <g id="text_1">
      <!-- 0.0 -->
      <defs>
       <path d="
M7.17188 0
L7.17188 13.7188
L20.9062 13.7188
L20.9062 0
z
" id="Arial-BoldMT-2e"/>
       <path d="
M27.4375 71.875
Q37.8438 71.875 43.7031 64.4531
Q50.6875 55.6719 50.6875 35.2969
Q50.6875 14.9844 43.6562 6.10938
Q37.8438 -1.21875 27.4375 -1.21875
Q17 -1.21875 10.5938 6.8125
Q4.20312 14.8438 4.20312 35.4531
Q4.20312 55.6719 11.2344 64.5469
Q17.0469 71.875 27.4375 71.875
M27.4375 60.5
Q24.9531 60.5 23 58.9062
Q21.0469 57.3281 19.9688 53.2188
Q18.5625 47.9062 18.5625 35.2969
Q18.5625 22.7031 19.8281 17.9844
Q21.0938 13.2812 23.0156 11.7188
Q24.9531 10.1562 27.4375 10.1562
Q29.9375 10.1562 31.8906 11.7344
Q33.8438 13.3281 34.9062 17.4375
Q36.3281 22.7031 36.3281 35.2969
Q36.3281 47.9062 35.0625 52.6094
Q33.7969 57.3281 31.8594 58.9062
Q29.9375 60.5 27.4375 60.5" id="Arial-BoldMT-30"/>
      </defs>
      <g transform="translate(77.0125 490.815625)scale(0.2 -0.2)">
       <use xlink:href="#Arial-BoldMT-30"/>
       <use x="55.615234375" xlink:href="#Arial-BoldMT-2e"/>
       <use x="83.3984375" xlink:href="#Arial-BoldMT-30"/>
      </g>
     </g>
    </g>
    <g id="xtick_2">
     <g id="line2d_5">
      <g>
       <use style="stroke:#000000;stroke-width:0.5;" x="201.6" xlink:href="#m93b0483c22" y="472.5"/>
      </g>
     </g>
     <g id="line2d_6">
      <g>
       <use style="stroke:#000000;stroke-width:0.5;" x="201.6" xlink:href="#m741efc42ff" y="54.0"/>
      </g>
     </g>
     <g id="text_2">
      <!-- 0.2 -->
      <defs>
       <path d="
M50.5938 12.75
L50.5938 0
L2.48438 0
Q3.26562 7.23438 7.17188 13.7031
Q11.0781 20.1719 22.6094 30.8594
Q31.8906 39.5 33.9844 42.5781
Q36.8125 46.8281 36.8125 50.9844
Q36.8125 55.5625 34.3438 58.0312
Q31.8906 60.5 27.5469 60.5
Q23.25 60.5 20.7031 57.9062
Q18.1719 55.3281 17.7812 49.3125
L4.10938 50.6875
Q5.32812 62.0156 11.7656 66.9375
Q18.2188 71.875 27.875 71.875
Q38.4844 71.875 44.5312 66.1562
Q50.5938 60.4531 50.5938 51.9531
Q50.5938 47.125 48.8594 42.75
Q47.125 38.375 43.3594 33.5938
Q40.875 30.4219 34.375 24.4531
Q27.875 18.5 26.1406 16.5469
Q24.4219 14.5938 23.3438 12.75
z
" id="Arial-BoldMT-32"/>
      </defs>
      <g transform="translate(188.621875 490.815625)scale(0.2 -0.2)">
       <use xlink:href="#Arial-BoldMT-30"/>
       <use x="55.615234375" xlink:href="#Arial-BoldMT-2e"/>
       <use x="83.3984375" xlink:href="#Arial-BoldMT-32"/>
      </g>
     </g>
    </g>
    <g id="xtick_3">
     <g id="line2d_7">
      <g>
       <use style="stroke:#000000;stroke-width:0.5;" x="313.2" xlink:href="#m93b0483c22" y="472.5"/>
      </g>
     </g>
     <g id="line2d_8">
      <g>
       <use style="stroke:#000000;stroke-width:0.5;" x="313.2" xlink:href="#m741efc42ff" y="54.0"/>
      </g>
     </g>
     <g id="text_3">
      <!-- 0.4 -->
      <defs>
       <path d="
M31.1562 0
L31.1562 14.4062
L1.85938 14.4062
L1.85938 26.4219
L32.9062 71.875
L44.4375 71.875
L44.4375 26.4688
L53.3281 26.4688
L53.3281 14.4062
L44.4375 14.4062
L44.4375 0
z

M31.1562 26.4688
L31.1562 50.9219
L14.7031 26.4688
z
" id="Arial-BoldMT-34"/>
      </defs>
      <g transform="translate(299.9484375 490.815625)scale(0.2 -0.2)">
       <use xlink:href="#Arial-BoldMT-30"/>
       <use x="55.615234375" xlink:href="#Arial-BoldMT-2e"/>
       <use x="83.3984375" xlink:href="#Arial-BoldMT-34"/>
      </g>
     </g>
    </g>
    <g id="xtick_4">
     <g id="line2d_9">
      <g>
       <use style="stroke:#000000;stroke-width:0.5;" x="424.8" xlink:href="#m93b0483c22" y="472.5"/>
      </g>
     </g>
     <g id="line2d_10">
      <g>
       <use style="stroke:#000000;stroke-width:0.5;" x="424.8" xlink:href="#m741efc42ff" y="54.0"/>
      </g>
     </g>
     <g id="text_4">
      <!-- 0.6 -->
      <defs>
       <path d="
M50.7344 54.0469
L37.4531 52.5938
Q36.9688 56.6875 34.9062 58.6406
Q32.8594 60.5938 29.5938 60.5938
Q25.25 60.5938 22.2344 56.6875
Q19.2344 52.7812 18.4531 40.4375
Q23.5781 46.4844 31.2031 46.4844
Q39.7969 46.4844 45.9219 39.9375
Q52.0469 33.4062 52.0469 23.0469
Q52.0469 12.0625 45.5938 5.42188
Q39.1562 -1.21875 29.0469 -1.21875
Q18.2188 -1.21875 11.2344 7.20312
Q4.25 15.625 4.25 34.8125
Q4.25 54.5 11.5156 63.1875
Q18.7969 71.875 30.4219 71.875
Q38.5781 71.875 43.9219 67.3125
Q49.2656 62.75 50.7344 54.0469
M19.625 24.125
Q19.625 17.4375 22.7031 13.7969
Q25.7812 10.1562 29.7344 10.1562
Q33.5469 10.1562 36.0781 13.125
Q38.625 16.1094 38.625 22.9062
Q38.625 29.8906 35.8906 33.125
Q33.1562 36.375 29.0469 36.375
Q25.0938 36.375 22.3594 33.2656
Q19.625 30.1719 19.625 24.125" id="Arial-BoldMT-36"/>
      </defs>
      <g transform="translate(411.6765625 490.815625)scale(0.2 -0.2)">
       <use xlink:href="#Arial-BoldMT-30"/>
       <use x="55.615234375" xlink:href="#Arial-BoldMT-2e"/>
       <use x="83.3984375" xlink:href="#Arial-BoldMT-36"/>
      </g>
     </g>
    </g>
    <g id="xtick_5">
     <g id="line2d_11">
      <g>
       <use style="stroke:#000000;stroke-width:0.5;" x="536.4" xlink:href="#m93b0483c22" y="472.5"/>
      </g>
     </g>
     <g id="line2d_12">
      <g>
       <use style="stroke:#000000;stroke-width:0.5;" x="536.4" xlink:href="#m741efc42ff" y="54.0"/>
      </g>
     </g>
     <g id="text_5">
      <!-- 0.8 -->
      <defs>
       <path d="
M16.0156 38.625
Q10.6875 40.875 8.26562 44.7969
Q5.85938 48.7344 5.85938 53.4219
Q5.85938 61.4219 11.4531 66.6406
Q17.0469 71.875 27.3438 71.875
Q37.5469 71.875 43.1875 66.6406
Q48.8281 61.4219 48.8281 53.4219
Q48.8281 48.4375 46.2344 44.5469
Q43.6562 40.6719 38.9688 38.625
Q44.9219 36.2344 48.0156 31.6406
Q51.125 27.0469 51.125 21.0469
Q51.125 11.1406 44.7969 4.9375
Q38.4844 -1.26562 27.9844 -1.26562
Q18.2188 -1.26562 11.7188 3.85938
Q4.04688 9.90625 4.04688 20.4531
Q4.04688 26.2656 6.92188 31.125
Q9.8125 35.9844 16.0156 38.625
M18.8438 52.4375
Q18.8438 48.3438 21.1562 46.0469
Q23.4844 43.75 27.3438 43.75
Q31.25 43.75 33.5938 46.0625
Q35.9375 48.3906 35.9375 52.4844
Q35.9375 56.3438 33.6094 58.6562
Q31.2969 60.9844 27.4844 60.9844
Q23.5312 60.9844 21.1875 58.6406
Q18.8438 56.2969 18.8438 52.4375
M17.5781 21.7812
Q17.5781 16.1094 20.4844 12.9375
Q23.3906 9.76562 27.7344 9.76562
Q31.9844 9.76562 34.7656 12.8125
Q37.5469 15.875 37.5469 21.625
Q37.5469 26.6562 34.7188 29.7031
Q31.8906 32.7656 27.5469 32.7656
Q22.5156 32.7656 20.0469 29.2969
Q17.5781 25.8281 17.5781 21.7812" id="Arial-BoldMT-38"/>
      </defs>
      <g transform="translate(523.36875 490.815625)scale(0.2 -0.2)">
       <use xlink:href="#Arial-BoldMT-30"/>
       <use x="55.615234375" xlink:href="#Arial-BoldMT-2e"/>
       <use x="83.3984375" xlink:href="#Arial-BoldMT-38"/>
      </g>
     </g>
    </g>
    <g id="xtick_6">
     <g id="line2d_13">
      <g>
       <use style="stroke:#000000;stroke-width:0.5;" x="648.0" xlink:href="#m93b0483c22" y="472.5"/>
      </g>
     </g>
     <g id="line2d_14">
      <g>
       <use style="stroke:#000000;stroke-width:0.5;" x="648.0" xlink:href="#m741efc42ff" y="54.0"/>
      </g>
     </g>
     <g id="text_6">
      <!-- 1.0 -->
      <defs>
       <path d="
M39.3594 0
L25.6406 0
L25.6406 51.7031
Q18.1094 44.6719 7.90625 41.3125
L7.90625 53.7656
Q13.2812 55.5156 19.5781 60.4219
Q25.875 65.3281 28.2188 71.875
L39.3594 71.875
z
" id="Arial-BoldMT-31"/>
      </defs>
      <g transform="translate(635.3828125 490.815625)scale(0.2 -0.2)">
       <use xlink:href="#Arial-BoldMT-31"/>
       <use x="55.615234375" xlink:href="#Arial-BoldMT-2e"/>
       <use x="83.3984375" xlink:href="#Arial-BoldMT-30"/>
      </g>
     </g>
    </g>
    <g id="text_7">
     <!-- False Positive Rate -->
     <defs>
      <path d="
M40.4375 6.39062
Q35.5469 2.25 31.0312 0.53125
Q26.5156 -1.17188 21.3438 -1.17188
Q12.7969 -1.17188 8.20312 3
Q3.60938 7.17188 3.60938 13.6719
Q3.60938 17.4844 5.34375 20.625
Q7.07812 23.7812 9.89062 25.6875
Q12.7031 27.5938 16.2188 28.5625
Q18.7969 29.25 24.0312 29.8906
Q34.6719 31.1562 39.7031 32.9062
Q39.75 34.7188 39.75 35.2031
Q39.75 40.5781 37.25 42.7812
Q33.8906 45.75 27.25 45.75
Q21.0469 45.75 18.0938 43.5781
Q15.1406 41.4062 13.7188 35.8906
L5.125 37.0625
Q6.29688 42.5781 8.98438 45.9688
Q11.6719 49.3594 16.75 51.1875
Q21.8281 53.0312 28.5156 53.0312
Q35.1562 53.0312 39.2969 51.4688
Q43.4531 49.9062 45.4062 47.5312
Q47.3594 45.1719 48.1406 41.5469
Q48.5781 39.3125 48.5781 33.4531
L48.5781 21.7344
Q48.5781 9.46875 49.1406 6.21875
Q49.7031 2.98438 51.375 0
L42.1875 0
Q40.8281 2.73438 40.4375 6.39062
M39.7031 26.0312
Q34.9062 24.0781 25.3438 22.7031
Q19.9219 21.9219 17.6719 20.9375
Q15.4375 19.9688 14.2031 18.0938
Q12.9844 16.2188 12.9844 13.9219
Q12.9844 10.4062 15.6406 8.0625
Q18.3125 5.71875 23.4375 5.71875
Q28.5156 5.71875 32.4688 7.9375
Q36.4219 10.1562 38.2812 14.0156
Q39.7031 17 39.7031 22.7969
z
" id="ArialMT-61"/>
      <path d="
M21 0
L1.26562 51.8594
L10.5469 51.8594
L21.6875 20.7969
Q23.4844 15.7656 25 10.3594
Q26.1719 14.4531 28.2656 20.2188
L39.7969 51.8594
L48.8281 51.8594
L29.2031 0
z
" id="ArialMT-76"/>
      <path d="
M42.0938 16.7031
L51.1719 15.5781
Q49.0312 7.625 43.2188 3.21875
Q37.4062 -1.17188 28.375 -1.17188
Q17 -1.17188 10.3281 5.82812
Q3.65625 12.8438 3.65625 25.4844
Q3.65625 38.5781 10.3906 45.7969
Q17.1406 53.0312 27.875 53.0312
Q38.2812 53.0312 44.875 45.9531
Q51.4688 38.875 51.4688 26.0312
Q51.4688 25.25 51.4219 23.6875
L12.75 23.6875
Q13.2344 15.1406 17.5781 10.5938
Q21.9219 6.0625 28.4219 6.0625
Q33.25 6.0625 36.6719 8.59375
Q40.0938 11.1406 42.0938 16.7031
M13.2344 30.9062
L42.1875 30.9062
Q41.6094 37.4531 38.875 40.7188
Q34.6719 45.7969 27.9844 45.7969
Q21.9219 45.7969 17.7969 41.75
Q13.6719 37.7031 13.2344 30.9062" id="ArialMT-65"/>
      <path d="
M25.7812 7.85938
L27.0469 0.09375
Q23.3438 -0.6875 20.4062 -0.6875
Q15.625 -0.6875 12.9844 0.828125
Q10.3594 2.34375 9.28125 4.8125
Q8.20312 7.28125 8.20312 15.1875
L8.20312 45.0156
L1.76562 45.0156
L1.76562 51.8594
L8.20312 51.8594
L8.20312 64.7031
L16.9375 69.9688
L16.9375 51.8594
L25.7812 51.8594
L25.7812 45.0156
L16.9375 45.0156
L16.9375 14.7031
Q16.9375 10.9375 17.4062 9.85938
Q17.875 8.79688 18.9219 8.15625
Q19.9688 7.51562 21.9219 7.51562
Q23.3906 7.51562 25.7812 7.85938" id="ArialMT-74"/>
      <path d="
M7.71875 0
L7.71875 71.5781
L34.7188 71.5781
Q41.8438 71.5781 45.6094 70.9062
Q50.875 70.0156 54.4375 67.5469
Q58.0156 65.0938 60.1875 60.6406
Q62.3594 56.2031 62.3594 50.875
Q62.3594 41.75 56.5469 35.4219
Q50.7344 29.1094 35.5469 29.1094
L17.1875 29.1094
L17.1875 0
z

M17.1875 37.5469
L35.6875 37.5469
Q44.875 37.5469 48.7344 40.9688
Q52.5938 44.3906 52.5938 50.5938
Q52.5938 55.0781 50.3125 58.2656
Q48.0469 61.4688 44.3438 62.5
Q41.9375 63.1406 35.5 63.1406
L17.1875 63.1406
z
" id="ArialMT-50"/>
      <path d="
M3.07812 15.4844
L11.7656 16.8438
Q12.5 11.625 15.8438 8.84375
Q19.1875 6.0625 25.2031 6.0625
Q31.25 6.0625 34.1719 8.51562
Q37.1094 10.9844 37.1094 14.3125
Q37.1094 17.2812 34.5156 19
Q32.7188 20.1719 25.5312 21.9688
Q15.875 24.4219 12.1406 26.2031
Q8.40625 27.9844 6.46875 31.125
Q4.54688 34.2812 4.54688 38.0938
Q4.54688 41.5469 6.125 44.5
Q7.71875 47.4688 10.4531 49.4219
Q12.5 50.9219 16.0312 51.9688
Q19.5781 53.0312 23.6406 53.0312
Q29.7344 53.0312 34.3438 51.2656
Q38.9688 49.5156 41.1562 46.5
Q43.3594 43.5 44.1875 38.4844
L35.5938 37.3125
Q35.0156 41.3125 32.2031 43.5469
Q29.3906 45.7969 24.2656 45.7969
Q18.2188 45.7969 15.625 43.7969
Q13.0312 41.7969 13.0312 39.1094
Q13.0312 37.4062 14.1094 36.0312
Q15.1875 34.625 17.4844 33.6875
Q18.7969 33.2031 25.25 31.4531
Q34.5781 28.9531 38.25 27.3594
Q41.9375 25.7812 44.0312 22.75
Q46.1406 19.7344 46.1406 15.2344
Q46.1406 10.8438 43.5781 6.95312
Q41.0156 3.07812 36.1719 0.953125
Q31.3438 -1.17188 25.25 -1.17188
Q15.1406 -1.17188 9.84375 3.03125
Q4.54688 7.23438 3.07812 15.4844" id="ArialMT-73"/>
      <path d="
M6.39062 0
L6.39062 71.5781
L15.1875 71.5781
L15.1875 0
z
" id="ArialMT-6c"/>
      <path d="
M7.85938 0
L7.85938 71.5781
L39.5938 71.5781
Q49.1719 71.5781 54.1406 69.6406
Q59.125 67.7188 62.1094 62.8281
Q65.0938 57.9531 65.0938 52.0469
Q65.0938 44.4375 60.1562 39.2031
Q55.2188 33.9844 44.9219 32.5625
Q48.6875 30.7656 50.6406 29
Q54.7812 25.2031 58.5 19.4844
L70.9531 0
L59.0312 0
L49.5625 14.8906
Q45.4062 21.3438 42.7188 24.75
Q40.0469 28.1719 37.9219 29.5312
Q35.7969 30.9062 33.5938 31.4531
Q31.9844 31.7812 28.3281 31.7812
L17.3281 31.7812
L17.3281 0
z

M17.3281 39.9844
L37.7031 39.9844
Q44.1875 39.9844 47.8438 41.3281
Q51.5156 42.6719 53.4219 45.625
Q55.3281 48.5781 55.3281 52.0469
Q55.3281 57.125 51.6406 60.3906
Q47.9531 63.6719 39.9844 63.6719
L17.3281 63.6719
z
" id="ArialMT-52"/>
      <path d="
M3.32812 25.9219
Q3.32812 40.3281 11.3281 47.2656
Q18.0156 53.0312 27.6406 53.0312
Q38.3281 53.0312 45.1094 46.0156
Q51.9062 39.0156 51.9062 26.6562
Q51.9062 16.6562 48.9062 10.9062
Q45.9062 5.17188 40.1562 2
Q34.4219 -1.17188 27.6406 -1.17188
Q16.75 -1.17188 10.0312 5.8125
Q3.32812 12.7969 3.32812 25.9219
M12.3594 25.9219
Q12.3594 15.9688 16.7031 11.0156
Q21.0469 6.0625 27.6406 6.0625
Q34.1875 6.0625 38.5312 11.0312
Q42.875 16.0156 42.875 26.2188
Q42.875 35.8438 38.5 40.7969
Q34.125 45.75 27.6406 45.75
Q21.0469 45.75 16.7031 40.8125
Q12.3594 35.8906 12.3594 25.9219" id="ArialMT-6f"/>
      <path d="
M8.20312 0
L8.20312 71.5781
L56.5 71.5781
L56.5 63.1406
L17.6719 63.1406
L17.6719 40.9688
L51.2656 40.9688
L51.2656 32.5156
L17.6719 32.5156
L17.6719 0
z
" id="ArialMT-46"/>
      <path d="
M6.64062 61.4688
L6.64062 71.5781
L15.4375 71.5781
L15.4375 61.4688
z

M6.64062 0
L6.64062 51.8594
L15.4375 51.8594
L15.4375 0
z
" id="ArialMT-69"/>
      <path id="ArialMT-20"/>
     </defs>
     <g transform="translate(283.2703125 514.078125)scale(0.2 -0.2)">
      <use xlink:href="#ArialMT-46"/>
      <use x="61.083984375" xlink:href="#ArialMT-61"/>
      <use x="116.69921875" xlink:href="#ArialMT-6c"/>
      <use x="138.916015625" xlink:href="#ArialMT-73"/>
      <use x="188.916015625" xlink:href="#ArialMT-65"/>
      <use x="244.53125" xlink:href="#ArialMT-20"/>
      <use x="272.314453125" xlink:href="#ArialMT-50"/>
      <use x="339.013671875" xlink:href="#ArialMT-6f"/>
      <use x="394.62890625" xlink:href="#ArialMT-73"/>
      <use x="444.62890625" xlink:href="#ArialMT-69"/>
      <use x="466.845703125" xlink:href="#ArialMT-74"/>
      <use x="494.62890625" xlink:href="#ArialMT-69"/>
      <use x="516.845703125" xlink:href="#ArialMT-76"/>
      <use x="566.845703125" xlink:href="#ArialMT-65"/>
      <use x="622.4609375" xlink:href="#ArialMT-20"/>
      <use x="650.244140625" xlink:href="#ArialMT-52"/>
      <use x="722.4609375" xlink:href="#ArialMT-61"/>
      <use x="778.076171875" xlink:href="#ArialMT-74"/>
      <use x="805.859375" xlink:href="#ArialMT-65"/>
     </g>
    </g>
   </g>
   <g id="matplotlib.axis_2">
    <g id="ytick_1">
     <g id="line2d_15">
      <defs>
       <path d="
M0 0
L4 0" id="m728421d6d4" style="stroke:#000000;stroke-width:0.5;"/>
      </defs>
      <g>
       <use style="stroke:#000000;stroke-width:0.5;" x="90.0" xlink:href="#m728421d6d4" y="472.5"/>
      </g>
     </g>
     <g id="line2d_16">
      <defs>
       <path d="
M0 0
L-4 0" id="mcb0005524f" style="stroke:#000000;stroke-width:0.5;"/>
      </defs>
      <g>
       <use style="stroke:#000000;stroke-width:0.5;" x="648.0" xlink:href="#mcb0005524f" y="472.5"/>
      </g>
     </g>
     <g id="text_8">
      <!-- 0.0 -->
      <g transform="translate(60.025 477.684375)scale(0.2 -0.2)">
       <use xlink:href="#Arial-BoldMT-30"/>
       <use x="55.615234375" xlink:href="#Arial-BoldMT-2e"/>
       <use x="83.3984375" xlink:href="#Arial-BoldMT-30"/>
      </g>
     </g>
    </g>
    <g id="ytick_2">
     <g id="line2d_17">
      <g>
       <use style="stroke:#000000;stroke-width:0.5;" x="90.0" xlink:href="#m728421d6d4" y="392.785714286"/>
      </g>
     </g>
     <g id="line2d_18">
      <g>
       <use style="stroke:#000000;stroke-width:0.5;" x="648.0" xlink:href="#mcb0005524f" y="392.785714286"/>
      </g>
     </g>
     <g id="text_9">
      <!-- 0.2 -->
      <g transform="translate(60.04375 397.970089286)scale(0.2 -0.2)">
       <use xlink:href="#Arial-BoldMT-30"/>
       <use x="55.615234375" xlink:href="#Arial-BoldMT-2e"/>
       <use x="83.3984375" xlink:href="#Arial-BoldMT-32"/>
      </g>
     </g>
    </g>
    <g id="ytick_3">
     <g id="line2d_19">
      <g>
       <use style="stroke:#000000;stroke-width:0.5;" x="90.0" xlink:href="#m728421d6d4" y="313.071428571"/>
      </g>
     </g>
     <g id="line2d_20">
      <g>
       <use style="stroke:#000000;stroke-width:0.5;" x="648.0" xlink:href="#mcb0005524f" y="313.071428571"/>
      </g>
     </g>
     <g id="text_10">
      <!-- 0.4 -->
      <g transform="translate(59.496875 318.255803571)scale(0.2 -0.2)">
       <use xlink:href="#Arial-BoldMT-30"/>
       <use x="55.615234375" xlink:href="#Arial-BoldMT-2e"/>
       <use x="83.3984375" xlink:href="#Arial-BoldMT-34"/>
      </g>
     </g>
    </g>
    <g id="ytick_4">
     <g id="line2d_21">
      <g>
       <use style="stroke:#000000;stroke-width:0.5;" x="90.0" xlink:href="#m728421d6d4" y="233.357142857"/>
      </g>
     </g>
     <g id="line2d_22">
      <g>
       <use style="stroke:#000000;stroke-width:0.5;" x="648.0" xlink:href="#mcb0005524f" y="233.357142857"/>
      </g>
     </g>
     <g id="text_11">
      <!-- 0.6 -->
      <g transform="translate(59.753125 238.541517857)scale(0.2 -0.2)">
       <use xlink:href="#Arial-BoldMT-30"/>
       <use x="55.615234375" xlink:href="#Arial-BoldMT-2e"/>
       <use x="83.3984375" xlink:href="#Arial-BoldMT-36"/>
      </g>
     </g>
    </g>
    <g id="ytick_5">
     <g id="line2d_23">
      <g>
       <use style="stroke:#000000;stroke-width:0.5;" x="90.0" xlink:href="#m728421d6d4" y="153.642857143"/>
      </g>
     </g>
     <g id="line2d_24">
      <g>
       <use style="stroke:#000000;stroke-width:0.5;" x="648.0" xlink:href="#mcb0005524f" y="153.642857143"/>
      </g>
     </g>
     <g id="text_12">
      <!-- 0.8 -->
      <g transform="translate(59.9375 158.827232143)scale(0.2 -0.2)">
       <use xlink:href="#Arial-BoldMT-30"/>
       <use x="55.615234375" xlink:href="#Arial-BoldMT-2e"/>
       <use x="83.3984375" xlink:href="#Arial-BoldMT-38"/>
      </g>
     </g>
    </g>
    <g id="ytick_6">
     <g id="line2d_25">
      <g>
       <use style="stroke:#000000;stroke-width:0.5;" x="90.0" xlink:href="#m728421d6d4" y="73.9285714286"/>
      </g>
     </g>
     <g id="line2d_26">
      <g>
       <use style="stroke:#000000;stroke-width:0.5;" x="648.0" xlink:href="#mcb0005524f" y="73.9285714286"/>
      </g>
     </g>
     <g id="text_13">
      <!-- 1.0 -->
      <g transform="translate(60.765625 79.1129464286)scale(0.2 -0.2)">
       <use xlink:href="#Arial-BoldMT-31"/>
       <use x="55.615234375" xlink:href="#Arial-BoldMT-2e"/>
       <use x="83.3984375" xlink:href="#Arial-BoldMT-30"/>
      </g>
     </g>
    </g>
    <g id="text_14">
     <!-- True Positive Rate -->
     <defs>
      <path d="
M40.5781 0
L40.5781 7.625
Q34.5156 -1.17188 24.125 -1.17188
Q19.5312 -1.17188 15.5469 0.578125
Q11.5781 2.34375 9.64062 5
Q7.71875 7.67188 6.9375 11.5312
Q6.39062 14.1094 6.39062 19.7344
L6.39062 51.8594
L15.1875 51.8594
L15.1875 23.0938
Q15.1875 16.2188 15.7188 13.8125
Q16.5469 10.3594 19.2344 8.375
Q21.9219 6.39062 25.875 6.39062
Q29.8281 6.39062 33.2969 8.42188
Q36.7656 10.4531 38.2031 13.9375
Q39.6562 17.4375 39.6562 24.0781
L39.6562 51.8594
L48.4375 51.8594
L48.4375 0
z
" id="ArialMT-75"/>
      <path d="
M6.5 0
L6.5 51.8594
L14.4062 51.8594
L14.4062 44
Q17.4375 49.5156 20 51.2656
Q22.5625 53.0312 25.6406 53.0312
Q30.0781 53.0312 34.6719 50.2031
L31.6406 42.0469
Q28.4219 43.9531 25.2031 43.9531
Q22.3125 43.9531 20.0156 42.2188
Q17.7188 40.4844 16.75 37.4062
Q15.2812 32.7188 15.2812 27.1562
L15.2812 0
z
" id="ArialMT-72"/>
      <path d="
M25.9219 0
L25.9219 63.1406
L2.34375 63.1406
L2.34375 71.5781
L59.0781 71.5781
L59.0781 63.1406
L35.4062 63.1406
L35.4062 0
z
" id="ArialMT-54"/>
     </defs>
     <g transform="translate(50.521875 344.7125)rotate(-90.0)scale(0.2 -0.2)">
      <use xlink:href="#ArialMT-54"/>
      <use x="57.333984375" xlink:href="#ArialMT-72"/>
      <use x="90.634765625" xlink:href="#ArialMT-75"/>
      <use x="146.25" xlink:href="#ArialMT-65"/>
      <use x="201.865234375" xlink:href="#ArialMT-20"/>
      <use x="229.6484375" xlink:href="#ArialMT-50"/>
      <use x="296.34765625" xlink:href="#ArialMT-6f"/>
      <use x="351.962890625" xlink:href="#ArialMT-73"/>
      <use x="401.962890625" xlink:href="#ArialMT-69"/>
      <use x="424.1796875" xlink:href="#ArialMT-74"/>
      <use x="451.962890625" xlink:href="#ArialMT-69"/>
      <use x="474.1796875" xlink:href="#ArialMT-76"/>
      <use x="524.1796875" xlink:href="#ArialMT-65"/>
      <use x="579.794921875" xlink:href="#ArialMT-20"/>
      <use x="607.578125" xlink:href="#ArialMT-52"/>
      <use x="679.794921875" xlink:href="#ArialMT-61"/>
      <use x="735.41015625" xlink:href="#ArialMT-74"/>
      <use x="763.193359375" xlink:href="#ArialMT-65"/>
     </g>
    </g>
   </g>
   <g id="patch_3">
    <path d="
M90 54
L648 54" style="fill:none;stroke:#000000;"/>
   </g>
   <g id="patch_4">
    <path d="
M648 472.5
L648 54" style="fill:none;stroke:#000000;"/>
   </g>
   <g id="patch_5">
    <path d="
M90 472.5
L648 472.5" style="fill:none;stroke:#000000;"/>
   </g>
   <g id="patch_6">
    <path d="
M90 472.5
L90 54" style="fill:none;stroke:#000000;"/>
   </g>
   <g id="text_15">
    <!-- Receiver Operating Characteristic -->
    <defs>
     <path d="
M2.34375 14.7969
L16.1094 16.8906
Q17 12.8906 19.6719 10.8125
Q22.3594 8.73438 27.2031 8.73438
Q32.5156 8.73438 35.2031 10.6875
Q37.0156 12.0625 37.0156 14.3594
Q37.0156 15.9219 36.0312 16.9375
Q35.0156 17.9219 31.4531 18.75
Q14.8438 22.4062 10.4062 25.4375
Q4.25 29.6406 4.25 37.1094
Q4.25 43.8438 9.5625 48.4375
Q14.8906 53.0312 26.0781 53.0312
Q36.7188 53.0312 41.8906 49.5625
Q47.0781 46.0938 49.0312 39.3125
L36.0781 36.9219
Q35.25 39.9375 32.9219 41.5469
Q30.6094 43.1719 26.3125 43.1719
Q20.9062 43.1719 18.5625 41.6562
Q17 40.5781 17 38.875
Q17 37.4062 18.3594 36.375
Q20.2188 35.0156 31.1719 32.5156
Q42.1406 30.0312 46.4844 26.4219
Q50.7812 22.75 50.7812 16.2188
Q50.7812 9.07812 44.8281 3.95312
Q38.875 -1.17188 27.2031 -1.17188
Q16.6094 -1.17188 10.4219 3.125
Q4.25 7.42188 2.34375 14.7969" id="Arial-BoldMT-73"/>
     <path d="
M20.3125 0
L6.59375 0
L6.59375 51.8594
L19.3438 51.8594
L19.3438 44.4844
Q22.6094 49.7031 25.2188 51.3594
Q27.8281 53.0312 31.1562 53.0312
Q35.8438 53.0312 40.1875 50.4375
L35.9375 38.4844
Q32.4688 40.7188 29.5 40.7188
Q26.6094 40.7188 24.6094 39.125
Q22.6094 37.5469 21.4531 33.3906
Q20.3125 29.25 20.3125 16.0156
z
" id="Arial-BoldMT-72"/>
     <path d="
M52.3906 36.5312
L38.875 34.0781
Q38.1875 38.1406 35.7656 40.1875
Q33.3438 42.2344 29.5 42.2344
Q24.3594 42.2344 21.3125 38.6875
Q18.2656 35.1562 18.2656 26.8594
Q18.2656 17.625 21.3594 13.8125
Q24.4688 10.0156 29.6875 10.0156
Q33.5938 10.0156 36.0781 12.2344
Q38.5781 14.4531 39.5938 19.875
L53.0781 17.5781
Q50.9844 8.29688 45.0156 3.5625
Q39.0625 -1.17188 29.0469 -1.17188
Q17.6719 -1.17188 10.9062 6
Q4.15625 13.1875 4.15625 25.875
Q4.15625 38.7188 10.9375 45.875
Q17.7188 53.0312 29.2969 53.0312
Q38.7656 53.0312 44.3594 48.9531
Q49.9531 44.875 52.3906 36.5312" id="Arial-BoldMT-63"/>
     <path d="
M21.4375 0
L0.53125 51.8594
L14.9375 51.8594
L24.7031 25.3906
L27.5469 16.5469
Q28.6562 19.9219 28.9531 21
Q29.6406 23.1875 30.4219 25.3906
L40.2812 51.8594
L54.3906 51.8594
L33.7969 0
z
" id="Arial-BoldMT-76"/>
     <path d="
M17.4375 36.0312
L4.98438 38.2812
Q7.07812 45.7969 12.2031 49.4062
Q17.3281 53.0312 27.4375 53.0312
Q36.625 53.0312 41.1094 50.8594
Q45.6094 48.6875 47.4375 45.3438
Q49.2656 42 49.2656 33.0625
L49.125 17.0469
Q49.125 10.2031 49.7812 6.95312
Q50.4375 3.71875 52.25 0
L38.6719 0
Q38.1406 1.375 37.3594 4.04688
Q37.0156 5.28125 36.8594 5.67188
Q33.3438 2.25 29.3438 0.53125
Q25.3438 -1.17188 20.7969 -1.17188
Q12.7969 -1.17188 8.17188 3.17188
Q3.5625 7.51562 3.5625 14.1562
Q3.5625 18.5625 5.65625 22
Q7.76562 25.4375 11.5469 27.2656
Q15.3281 29.1094 22.4688 30.4688
Q32.0781 32.2812 35.7969 33.8438
L35.7969 35.2031
Q35.7969 39.1562 33.8438 40.8438
Q31.8906 42.5312 26.4688 42.5312
Q22.7969 42.5312 20.75 41.0938
Q18.7031 39.6562 17.4375 36.0312
M35.7969 24.9062
Q33.1562 24.0312 27.4375 22.7969
Q21.7344 21.5781 19.9688 20.4062
Q17.2812 18.5 17.2812 15.5781
Q17.2812 12.7031 19.4219 10.5938
Q21.5781 8.5 24.9062 8.5
Q28.6094 8.5 31.9844 10.9375
Q34.4688 12.7969 35.25 15.4844
Q35.7969 17.2344 35.7969 22.1719
z
" id="Arial-BoldMT-61"/>
     <path d="
M20.8438 71.5781
L20.8438 45.2656
Q27.4844 53.0312 36.7188 53.0312
Q41.4531 53.0312 45.2656 51.2656
Q49.0781 49.5156 51 46.7812
Q52.9375 44.0469 53.6406 40.7188
Q54.3438 37.4062 54.3438 30.4219
L54.3438 0
L40.625 0
L40.625 27.3906
Q40.625 35.5469 39.8438 37.7344
Q39.0625 39.9375 37.0781 41.2344
Q35.1094 42.5312 32.125 42.5312
Q28.7188 42.5312 26.0312 40.8594
Q23.3438 39.2031 22.0938 35.8594
Q20.8438 32.5156 20.8438 25.9844
L20.8438 0
L7.125 0
L7.125 71.5781
z
" id="Arial-BoldMT-68"/>
     <path d="
M7.17188 58.8906
L7.17188 71.5781
L20.9062 71.5781
L20.9062 58.8906
z

M7.17188 0
L7.17188 51.8594
L20.9062 51.8594
L20.9062 0
z
" id="Arial-BoldMT-69"/>
     <path d="
M30.9531 51.8594
L30.9531 40.9219
L21.5781 40.9219
L21.5781 20.0156
Q21.5781 13.6719 21.8438 12.625
Q22.125 11.5781 23.0781 10.8906
Q24.0312 10.2031 25.3906 10.2031
Q27.2969 10.2031 30.9062 11.5312
L32.0781 0.875
Q27.2969 -1.17188 21.2344 -1.17188
Q17.5312 -1.17188 14.5469 0.0625
Q11.5781 1.3125 10.1875 3.29688
Q8.79688 5.28125 8.25 8.64062
Q7.8125 11.0312 7.8125 18.3125
L7.8125 40.9219
L1.51562 40.9219
L1.51562 51.8594
L7.8125 51.8594
L7.8125 62.1562
L21.5781 70.1719
L21.5781 51.8594
z
" id="Arial-BoldMT-74"/>
     <path id="Arial-BoldMT-20"/>
     <path d="
M6.78125 51.8594
L19.5781 51.8594
L19.5781 44.2344
Q22.0781 48.1406 26.3125 50.5781
Q30.5625 53.0312 35.75 53.0312
Q44.7812 53.0312 51.0781 45.9531
Q57.375 38.875 57.375 26.2188
Q57.375 13.2344 51.0156 6.03125
Q44.6719 -1.17188 35.6406 -1.17188
Q31.3438 -1.17188 27.8438 0.53125
Q24.3594 2.25 20.5156 6.39062
L20.5156 -19.7344
L6.78125 -19.7344
z

M20.3594 26.8125
Q20.3594 18.0625 23.8281 13.8906
Q27.2969 9.71875 32.2812 9.71875
Q37.0625 9.71875 40.2344 13.5469
Q43.4062 17.3906 43.4062 26.125
Q43.4062 34.2812 40.125 38.2344
Q36.8594 42.1875 32.0312 42.1875
Q27 42.1875 23.6719 38.2969
Q20.3594 34.4219 20.3594 26.8125" id="Arial-BoldMT-70"/>
     <path d="
M54.3438 0
L40.625 0
L40.625 26.4688
Q40.625 34.8594 39.75 37.3281
Q38.875 39.7969 36.8906 41.1562
Q34.9062 42.5312 32.125 42.5312
Q28.5625 42.5312 25.7344 40.5781
Q22.9062 38.625 21.8438 35.3906
Q20.7969 32.1719 20.7969 23.4844
L20.7969 0
L7.07812 0
L7.07812 51.8594
L19.8281 51.8594
L19.8281 44.2344
Q26.6094 53.0312 36.9219 53.0312
Q41.4531 53.0312 45.2031 51.3906
Q48.9688 49.75 50.8906 47.2031
Q52.8281 44.6719 53.5781 41.4531
Q54.3438 38.2344 54.3438 32.2344
z
" id="Arial-BoldMT-6e"/>
     <path d="
M53.0781 26.3125
L67.0938 21.875
Q63.875 10.1562 56.375 4.46875
Q48.875 -1.21875 37.3594 -1.21875
Q23.0938 -1.21875 13.9062 8.51562
Q4.73438 18.2656 4.73438 35.1562
Q4.73438 53.0312 13.9531 62.9062
Q23.1875 72.7969 38.2344 72.7969
Q51.375 72.7969 59.5781 65.0469
Q64.4531 60.4531 66.8906 51.8594
L52.5938 48.4375
Q51.3125 54 47.2812 57.2188
Q43.2656 60.4531 37.5 60.4531
Q29.5469 60.4531 24.5781 54.7344
Q19.625 49.0312 19.625 36.2344
Q19.625 22.6562 24.5 16.8906
Q29.3906 11.1406 37.2031 11.1406
Q42.9688 11.1406 47.1094 14.7969
Q51.2656 18.4531 53.0781 26.3125" id="Arial-BoldMT-43"/>
     <path d="
M4.34375 35.3594
Q4.34375 46.2969 7.625 53.7188
Q10.0625 59.1875 14.2812 63.5312
Q18.5 67.875 23.5312 69.9688
Q30.2188 72.7969 38.9688 72.7969
Q54.7812 72.7969 64.2812 62.9844
Q73.7812 53.1719 73.7812 35.6875
Q73.7812 18.3594 64.3594 8.5625
Q54.9375 -1.21875 39.1562 -1.21875
Q23.1875 -1.21875 13.7656 8.51562
Q4.34375 18.2656 4.34375 35.3594
M19.2344 35.8438
Q19.2344 23.6875 24.8438 17.4062
Q30.4688 11.1406 39.1094 11.1406
Q47.75 11.1406 53.2969 17.3594
Q58.8438 23.5781 58.8438 36.0312
Q58.8438 48.3438 53.4375 54.3906
Q48.0469 60.4531 39.1094 60.4531
Q30.1719 60.4531 24.7031 54.3125
Q19.2344 48.1875 19.2344 35.8438" id="Arial-BoldMT-4f"/>
     <path d="
M5.90625 -3.42188
L21.5781 -5.32812
Q21.9688 -8.0625 23.3906 -9.07812
Q25.3438 -10.5469 29.5469 -10.5469
Q34.9062 -10.5469 37.5938 -8.9375
Q39.4062 -7.85938 40.3281 -5.46875
Q40.9688 -3.76562 40.9688 0.828125
L40.9688 8.40625
Q34.8125 0 25.4375 0
Q14.9844 0 8.89062 8.84375
Q4.10938 15.8281 4.10938 26.2188
Q4.10938 39.2656 10.375 46.1406
Q16.6562 53.0312 25.9844 53.0312
Q35.5938 53.0312 41.8438 44.5781
L41.8438 51.8594
L54.6875 51.8594
L54.6875 5.32812
Q54.6875 -3.85938 53.1719 -8.39062
Q51.6562 -12.9375 48.9219 -15.5156
Q46.1875 -18.1094 41.625 -19.5781
Q37.0625 -21.0469 30.0781 -21.0469
Q16.8906 -21.0469 11.375 -16.5312
Q5.85938 -12.0156 5.85938 -5.07812
Q5.85938 -4.39062 5.90625 -3.42188
M18.1719 27
Q18.1719 18.75 21.3594 14.9062
Q24.5625 11.0781 29.25 11.0781
Q34.2812 11.0781 37.75 15.0156
Q41.2188 18.9531 41.2188 26.6562
Q41.2188 34.7188 37.8906 38.625
Q34.5781 42.5312 29.5 42.5312
Q24.5625 42.5312 21.3594 38.6875
Q18.1719 34.8594 18.1719 27" id="Arial-BoldMT-67"/>
     <path d="
M7.32812 0
L7.32812 71.5781
L37.75 71.5781
Q49.2188 71.5781 54.4219 69.6406
Q59.625 67.7188 62.75 62.7812
Q65.875 57.8594 65.875 51.5156
Q65.875 43.4531 61.125 38.2031
Q56.3906 32.9531 46.9688 31.5938
Q51.6562 28.8594 54.7031 25.5781
Q57.7656 22.3125 62.9375 13.9688
L71.6875 0
L54.3906 0
L43.9531 15.5781
Q38.375 23.9219 36.3281 26.0938
Q34.2812 28.2656 31.9844 29.0781
Q29.6875 29.8906 24.7031 29.8906
L21.7812 29.8906
L21.7812 0
z

M21.7812 41.3125
L32.4688 41.3125
Q42.875 41.3125 45.4531 42.1875
Q48.0469 43.0625 49.5156 45.2031
Q50.9844 47.3594 50.9844 50.5938
Q50.9844 54.2031 49.0469 56.4219
Q47.125 58.6406 43.6094 59.2344
Q41.8438 59.4688 33.0625 59.4688
L21.7812 59.4688
z
" id="Arial-BoldMT-52"/>
     <path d="
M37.2031 16.5
L50.875 14.2031
Q48.25 6.6875 42.5469 2.75
Q36.8594 -1.17188 28.3281 -1.17188
Q14.7969 -1.17188 8.29688 7.67188
Q3.17188 14.75 3.17188 25.5312
Q3.17188 38.4219 9.90625 45.7188
Q16.6562 53.0312 26.9531 53.0312
Q38.5312 53.0312 45.2188 45.3906
Q51.9062 37.75 51.6094 21.9688
L17.2344 21.9688
Q17.3906 15.875 20.5625 12.4688
Q23.7344 9.07812 28.4688 9.07812
Q31.6875 9.07812 33.875 10.8281
Q36.0781 12.5938 37.2031 16.5
M37.9844 30.375
Q37.8438 36.3281 34.9062 39.4219
Q31.9844 42.5312 27.7812 42.5312
Q23.2969 42.5312 20.3594 39.2656
Q17.4375 35.9844 17.4844 30.375
z
" id="Arial-BoldMT-65"/>
    </defs>
    <g transform="translate(175.8975 49.0)scale(0.24 -0.24)">
     <use xlink:href="#Arial-BoldMT-52"/>
     <use x="72.216796875" xlink:href="#Arial-BoldMT-65"/>
     <use x="127.83203125" xlink:href="#Arial-BoldMT-63"/>
     <use x="183.447265625" xlink:href="#Arial-BoldMT-65"/>
     <use x="239.0625" xlink:href="#Arial-BoldMT-69"/>
     <use x="266.845703125" xlink:href="#Arial-BoldMT-76"/>
     <use x="322.4609375" xlink:href="#Arial-BoldMT-65"/>
     <use x="378.076171875" xlink:href="#Arial-BoldMT-72"/>
     <use x="416.9921875" xlink:href="#Arial-BoldMT-20"/>
     <use x="444.775390625" xlink:href="#Arial-BoldMT-4f"/>
     <use x="522.55859375" xlink:href="#Arial-BoldMT-70"/>
     <use x="583.642578125" xlink:href="#Arial-BoldMT-65"/>
     <use x="639.2578125" xlink:href="#Arial-BoldMT-72"/>
     <use x="678.173828125" xlink:href="#Arial-BoldMT-61"/>
     <use x="733.7890625" xlink:href="#Arial-BoldMT-74"/>
     <use x="767.08984375" xlink:href="#Arial-BoldMT-69"/>
     <use x="794.873046875" xlink:href="#Arial-BoldMT-6e"/>
     <use x="855.95703125" xlink:href="#Arial-BoldMT-67"/>
     <use x="917.041015625" xlink:href="#Arial-BoldMT-20"/>
     <use x="944.82421875" xlink:href="#Arial-BoldMT-43"/>
     <use x="1017.04101562" xlink:href="#Arial-BoldMT-68"/>
     <use x="1078.125" xlink:href="#Arial-BoldMT-61"/>
     <use x="1133.74023438" xlink:href="#Arial-BoldMT-72"/>
     <use x="1172.65625" xlink:href="#Arial-BoldMT-61"/>
     <use x="1228.27148438" xlink:href="#Arial-BoldMT-63"/>
     <use x="1283.88671875" xlink:href="#Arial-BoldMT-74"/>
     <use x="1317.1875" xlink:href="#Arial-BoldMT-65"/>
     <use x="1372.80273438" xlink:href="#Arial-BoldMT-72"/>
     <use x="1411.71875" xlink:href="#Arial-BoldMT-69"/>
     <use x="1439.50195312" xlink:href="#Arial-BoldMT-73"/>
     <use x="1495.1171875" xlink:href="#Arial-BoldMT-74"/>
     <use x="1528.41796875" xlink:href="#Arial-BoldMT-69"/>
     <use x="1556.20117188" xlink:href="#Arial-BoldMT-63"/>
    </g>
   </g>
   <g id="legend_1">
    <g id="patch_7">
     <path d="
M276.728 460.5
L636 460.5
L636 418.778
L276.728 418.778
L276.728 460.5
z
" style="fill:#ffffff;stroke:#000000;"/>
    </g>
    <g id="line2d_27">
     <path d="
M293.528 437.449
L327.128 437.449" style="fill:none;stroke:#0000ff;stroke-linecap:square;stroke-width:3;"/>
    </g>
    <g id="line2d_28"/>
    <g id="text_16">
     <!-- ROC Curve (area = 0.85) -->
     <defs>
      <path d="
M4.4375 18.4062
L18.1094 19.8281
Q18.7031 15.1875 21.5781 12.4688
Q24.4688 9.76562 28.2188 9.76562
Q32.5156 9.76562 35.5 13.25
Q38.4844 16.75 38.4844 23.7812
Q38.4844 30.375 35.5156 33.6719
Q32.5625 36.9688 27.8281 36.9688
Q21.9219 36.9688 17.2344 31.7344
L6.10938 33.3438
L13.1406 70.6094
L49.4219 70.6094
L49.4219 57.7656
L23.5312 57.7656
L21.3906 45.6094
Q25.9844 47.9062 30.7656 47.9062
Q39.8906 47.9062 46.2344 41.2656
Q52.5938 34.625 52.5938 24.0312
Q52.5938 15.1875 47.4688 8.25
Q40.4844 -1.21875 28.0781 -1.21875
Q18.1719 -1.21875 11.9219 4.09375
Q5.67188 9.42188 4.4375 18.4062" id="Arial-BoldMT-35"/>
      <path d="
M4.15625 39.8438
L4.15625 52.4375
L54.2031 52.4375
L54.2031 39.8438
z

M4.15625 18.1719
L4.15625 30.8125
L54.2031 30.8125
L54.2031 18.1719
z
" id="Arial-BoldMT-3d"/>
      <path d="
M29.9375 -21.0469
L20.5156 -21.0469
Q13.0312 -9.76562 9.125 2.39062
Q5.21875 14.5469 5.21875 25.9219
Q5.21875 40.0469 10.0625 52.6406
Q14.2656 63.5781 20.7031 72.7969
L30.0781 72.7969
Q23.3906 58.0156 20.875 47.625
Q18.3594 37.25 18.3594 25.6406
Q18.3594 17.625 19.8438 9.21875
Q21.3438 0.828125 23.9219 -6.73438
Q25.6406 -11.7188 29.9375 -21.0469" id="Arial-BoldMT-28"/>
      <path d="
M3.375 -21.0469
Q7.42188 -12.3594 9.07812 -7.71875
Q10.75 -3.07812 12.1562 2.96875
Q13.5781 9.03125 14.25 14.4688
Q14.9375 19.9219 14.9375 25.6406
Q14.9375 37.25 12.4531 47.625
Q9.96875 58.0156 3.26562 72.7969
L12.5938 72.7969
Q19.9688 62.3125 24.0469 50.5312
Q28.125 38.7656 28.125 26.6562
Q28.125 16.4531 24.9062 4.78125
Q21.2344 -8.29688 12.8438 -21.0469
z
" id="Arial-BoldMT-29"/>
      <path d="
M41.3125 0
L41.3125 7.76562
Q38.4844 3.60938 33.8594 1.21875
Q29.25 -1.17188 24.125 -1.17188
Q18.8906 -1.17188 14.7344 1.125
Q10.5938 3.42188 8.73438 7.5625
Q6.89062 11.7188 6.89062 19.0469
L6.89062 51.8594
L20.6094 51.8594
L20.6094 28.0312
Q20.6094 17.0938 21.3594 14.625
Q22.125 12.1562 24.125 10.7188
Q26.125 9.28125 29.2031 9.28125
Q32.7188 9.28125 35.5 11.2031
Q38.2812 13.1406 39.2969 15.9844
Q40.3281 18.8438 40.3281 29.9844
L40.3281 51.8594
L54.0469 51.8594
L54.0469 0
z
" id="Arial-BoldMT-75"/>
     </defs>
     <g transform="translate(353.5275 445.84875)scale(0.24 -0.24)">
      <use xlink:href="#Arial-BoldMT-52"/>
      <use x="72.216796875" xlink:href="#Arial-BoldMT-4f"/>
      <use x="150.0" xlink:href="#Arial-BoldMT-43"/>
      <use x="222.216796875" xlink:href="#Arial-BoldMT-20"/>
      <use x="250.0" xlink:href="#Arial-BoldMT-43"/>
      <use x="322.216796875" xlink:href="#Arial-BoldMT-75"/>
      <use x="383.30078125" xlink:href="#Arial-BoldMT-72"/>
      <use x="422.216796875" xlink:href="#Arial-BoldMT-76"/>
      <use x="477.83203125" xlink:href="#Arial-BoldMT-65"/>
      <use x="533.447265625" xlink:href="#Arial-BoldMT-20"/>
      <use x="561.23046875" xlink:href="#Arial-BoldMT-28"/>
      <use x="594.53125" xlink:href="#Arial-BoldMT-61"/>
      <use x="650.146484375" xlink:href="#Arial-BoldMT-72"/>
      <use x="689.0625" xlink:href="#Arial-BoldMT-65"/>
      <use x="744.677734375" xlink:href="#Arial-BoldMT-61"/>
      <use x="800.29296875" xlink:href="#Arial-BoldMT-20"/>
      <use x="828.076171875" xlink:href="#Arial-BoldMT-3d"/>
      <use x="886.474609375" xlink:href="#Arial-BoldMT-20"/>
      <use x="914.2578125" xlink:href="#Arial-BoldMT-30"/>
      <use x="969.873046875" xlink:href="#Arial-BoldMT-2e"/>
      <use x="997.65625" xlink:href="#Arial-BoldMT-38"/>
      <use x="1053.27148438" xlink:href="#Arial-BoldMT-35"/>
      <use x="1108.88671875" xlink:href="#Arial-BoldMT-29"/>
     </g>
    </g>
   </g>
  </g>
 </g>
 <defs>
  <clipPath id="p92fa548731">
   <rect height="418.5" width="558.0" x="90.0" y="54.0"/>
  </clipPath>
 </defs>
</svg>
